<?xml version="1.0" encoding="UTF-8" standalone="no" ?>
<!DOCTYPE svg PUBLIC "-//W3C//DTD SVG 1.1//EN" "http://www.w3.org/Graphics/SVG/1.1/DTD/svg11.dtd">
<svg xmlns="http://www.w3.org/2000/svg" xmlns:xlink="http://www.w3.org/1999/xlink" version="1.1" width="1080" height="1080" viewBox="0 0 1080 1080" xml:space="preserve">
<desc>Created with Fabric.js 5.2.4</desc>
<defs>
</defs>
<rect x="0" y="0" width="100%" height="100%" fill="transparent"></rect>
<g transform="matrix(1 0 0 1 540 540)" id="a5268b70-88a5-40cf-9605-54be52420cc4"  >
<rect style="stroke: none; stroke-width: 1; stroke-dasharray: none; stroke-linecap: butt; stroke-dashoffset: 0; stroke-linejoin: miter; stroke-miterlimit: 4; fill: rgb(255,255,255); fill-rule: nonzero; opacity: 1; visibility: hidden;" vector-effect="non-scaling-stroke"  x="-540" y="-540" rx="0" ry="0" width="1080" height="1080" />
</g>
<g transform="matrix(1 0 0 1 540 540)" id="00b5cfe4-044a-48a1-a94f-9ce07d2488c2"  >
</g>
<g transform="matrix(44.43 0 0 44.43 540 540)" id="111429e1-9ae9-46a7-bd86-a65085b863cf"  >
<path style="stroke: rgb(53,230,10); stroke-width: 0; stroke-dasharray: none; stroke-linecap: butt; stroke-dashoffset: 0; stroke-linejoin: miter; stroke-miterlimit: 4; fill: rgb(13,203,30); fill-rule: nonzero; opacity: 1;" vector-effect="non-scaling-stroke"  transform=" translate(-12.65, -11.63)" d="M 12.616 4.17 C 13.919 3.046 15.829 3.0999999999999996 16.989 4.261 C 17.633986666894987 4.909750887695464 17.960628637451666 5.809570873775449 17.882 6.721000000000002 C 17.756786896159735 6.731960221531036 17.632031600200744 6.747638026103423 17.508 6.768000000000001 L 17.479000000000003 6.773 L 17.469 6.7749999999999995 L 17.466 6.7749999999999995 L 17.463 6.776999999999999 L 16.482 6.970999999999999 L 16.87 8.933 L 17.847 8.738999999999999 L 17.852 8.738999999999999 L 17.892 8.732 C 18.111338898244664 8.700469720220934 18.333808818788928 8.697109147403044 18.554 8.722 C 19.215108242295365 8.814461715995009 19.828065100520565 9.119886954629559 20.299999999999997 9.591999999999999 C 21.517999999999997 10.810999999999998 21.517999999999997 12.852999999999998 20.215999999999998 14.154999999999998 C 19.934649643518963 14.436777284343945 19.605988654068124 14.666941520004677 19.244999999999997 14.834999999999997 L 18.439999999999998 15.207999999999997 L 18.714 16.051999999999996 C 18.997 16.919999999999995 18.785 17.941999999999997 18.061 18.666999999999994 C 17.038 19.689999999999994 15.440999999999999 19.683999999999994 14.495000000000001 18.736999999999995 C 14.118 18.360999999999994 13.881 17.840999999999994 13.812000000000001 17.265999999999995 C 13.732000000000001 16.597999999999995 13.886000000000001 15.914999999999996 14.242 15.389999999999995 L 14.706000000000001 14.705999999999996 L 12.874 12.873999999999995 L 12.437000000000001 11.563999999999995 L 11.126000000000001 11.125999999999994 L 10.110000000000001 10.109999999999994 L 9.490000000000002 10.370999999999993 C 8.617000000000003 10.739999999999993 7.687000000000002 10.648999999999994 6.862000000000002 10.148999999999994 C 6.606203573745923 9.992113213836198 6.369890649967465 9.805479711533891 6.158000000000003 9.592999999999993 C 4.94 8.375 4.94 6.333 6.242 5.03 C 7.452 3.8200000000000003 9.352 3.835 10.629 4.970000000000001 Q 10.696 5.03 10.761 5.095000000000001 C 11.484 5.817 11.616999999999999 6.415000000000001 11.715 7.178000000000001 L 11.843 8.169 L 13.826 7.915000000000001 L 13.699 6.923000000000001 C 13.591 6.080000000000001 13.403 5.152000000000001 12.616 4.170000000000001 M 19.865 7 C 20.02961506355434 5.465942210886445 19.492302160376568 3.9396354483028166 18.403 2.8469999999999995 C 16.395 0.8380000000000005 13.146999999999998 0.8840000000000003 11.095999999999998 2.849 C 9.139999999999999 1.7070000000000003 6.575999999999999 1.8670000000000002 4.8279999999999985 3.616 C 2.7829999999999986 5.661 2.7079999999999984 8.97 4.743999999999999 11.006 C 4.9255672345662695 11.18786988369429 5.118631537026916 11.357886717522092 5.322 11.515 C 5.286130019243519 11.725359402082795 5.2390631356973465 11.933655397350961 5.180999999999999 12.139000000000001 C 5.003721369462123 12.75661004359196 4.786941448543228 13.362190932075706 4.5319999999999965 13.952000000000002 C 3.962999999999999 15.291000000000002 3.2749999999999995 16.482000000000003 2.807999999999999 16.950000000000003 L 2.100999999999999 17.657000000000004 L 6.343 21.9 L 7.05 21.192999999999998 C 7.810582754503556 20.456912909314074 8.632933315150488 19.787456655508333 9.508 19.191999999999997 C 10.075 18.811999999999998 10.636999999999999 18.499999999999996 11.133999999999999 18.317999999999998 C 11.511999999999999 18.179 11.777 18.144 11.95 18.153999999999996 C 12.143414408634564 18.907892538055552 12.533339965301536 19.59699106607674 13.079999999999998 20.150999999999996 C 14.844999999999999 21.916999999999994 17.708999999999996 21.847999999999995 19.474999999999998 20.080999999999996 C 20.48519506548083 19.077979769290803 20.97407938766008 17.663760015554768 20.799 16.250999999999998 C 21.097995446447733 16.051873699598236 21.376374564050387 15.823408527269704 21.63 15.568999999999997 C 23.676 13.523999999999997 23.75 10.214999999999996 21.714 8.178999999999998 C 21.191563423959565 7.6549497569247995 20.56034251485597 7.252115428778644 19.865 6.998999999999999 M 11.850999999999999 16.150999999999996 C 11.356 16.158999999999995 10.872 16.282999999999998 10.446 16.438999999999997 C 9.74 16.697999999999997 9.03 17.104999999999997 8.396 17.528999999999996 C 7.687850842804038 18.007831805985003 7.011129531450868 18.53157268268874 6.369999999999999 19.096999999999994 L 4.856000000000001 17.583 C 5.4110000000000005 16.784 5.953000000000001 15.722999999999999 6.373000000000001 14.732999999999999 C 6.673000000000001 14.027999999999999 6.933000000000002 13.307999999999998 7.109000000000001 12.668 L 7.171000000000001 12.434 C 7.959000000000001 12.644 8.791 12.654 9.611 12.437999999999999 L 9.879000000000001 12.706 L 8.465000000000002 14.12 L 9.879000000000001 15.535 L 11.293000000000001 14.120000000000001 L 12.180000000000001 15.008000000000001 C 12.023027322012458 15.373841310756857 11.912176109537262 15.757789601239125 11.850000000000001 16.151" stroke-linecap="round" />
</g>
</svg>